<?xml version="1.0" encoding="utf-8"?>
<!-- Generator: Adobe Illustrator 24.1.1, SVG Export Plug-In . SVG Version: 6.00 Build 0)  -->
<svg version="1.1" xmlns="http://www.w3.org/2000/svg" x="0px" y="0px"
     viewBox="0 0 1920 1080" style="enable-background:new 0 0 1920 1080;" xml:space="preserve">
<style type="text/css">
	.st0{fill:#2A61AE;}
	.st1{opacity:0.15;}
	.st2{fill:#FFFFFF;}
</style>
<g id="Layer_1">
	<rect class="st0" width="1920" height="1080"/>
	<g>
		<g id="Layer_2_2_" class="st1">
			<g id="Layer_8_1_">
				<path class="st2" d="M1510.3,721.3c-1.6-0.1-3.3,0.1-4.8,0.5c-1,0.3-2.1-0.1-2.7-1l-22.5-33.8c-0.5-0.7-0.5-1.5-0.2-2.3
					c1.2-2.9,1.7-6.1,1.6-9.2c-0.4-11.8-10.1-21.3-21.9-21.6c-12.4-0.3-22.6,9.5-22.9,21.9c-0.1,5.8,2,11.4,5.9,15.6
					c0.6,0.6,0.8,1.5,0.5,2.4l-8.8,30.2c-0.2,0-0.3,0-0.5,0c-7.7,0-14,6.3-14,14s6.3,14,14,14c7.7,0,14-6.3,14-14
					c0-4.2-1.8-8.1-5-10.7c-0.8-0.7-1.1-1.7-0.8-2.7l8.3-25c0.4-1.2,1.7-1.9,3-1.6c5.6,1.5,11.5,0.7,16.6-2c1.1-0.6,2.4-0.3,3.2,0.7
					l22.3,29.3c0.6,0.8,0.7,2,0.1,2.8c-5.1,7.8-3,18.2,4.8,23.3s18.2,3,23.3-4.8c5.1-7.8,3-18.2-4.8-23.3
					C1516.4,722.4,1513.4,721.4,1510.3,721.3z"/>
			</g>
		</g>
		<g id="Layer_2_3_" class="st1">
			<g id="Layer_8_2_">
				<path class="st2" d="M1459.1,355.5c1.6,0.5,3.2,0.7,4.8,0.7c1,0,2,0.7,2.3,1.7l13,38.4c0.3,0.8,0.1,1.6-0.3,2.3
					c-1.9,2.5-3.2,5.4-3.9,8.5c-2.6,11.5,4.2,23.2,15.6,26.5c11.9,3.5,24.3-3.4,27.8-15.2c1.6-5.6,1-11.5-1.6-16.6
					c-0.4-0.8-0.4-1.7,0.1-2.4l16.3-26.8c0.1,0,0.3,0.1,0.4,0.1c7.5,2,15.1-2.4,17.1-9.9c2-7.5-2.4-15.1-9.9-17.1
					c-7.5-2-15.1,2.4-17.1,9.9c-1.1,4-0.3,8.3,2.1,11.7c0.6,0.8,0.6,1.9,0,2.8l-14.5,21.9c-0.7,1.1-2.1,1.4-3.3,0.8
					c-5-2.9-10.9-3.7-16.5-2.3c-1.2,0.3-2.4-0.3-2.9-1.5l-13.9-34c-0.4-1-0.1-2.1,0.6-2.8c6.9-6.2,7.6-16.8,1.4-23.7
					c-6.2-6.9-16.8-7.6-23.7-1.4c-6.9,6.2-7.6,16.8-1.4,23.7C1453.5,352.9,1456.2,354.6,1459.1,355.5z"/>
			</g>
		</g>
		<g id="Layer_2_8_" class="st1">
			<g id="Layer_8_7_">
				<path class="st2" d="M1770.4,328.4c-1.1-0.6-2.2-1-3.4-1.2c-0.8-0.2-1.3-0.8-1.5-1.5l-4.1-30c-0.1-0.6,0.1-1.2,0.6-1.6
					c1.7-1.6,3.1-3.5,4.1-5.7c3.6-8.1,0.2-17.6-7.7-21.6c-8.2-4.2-18.3-1-22.5,7.3c-2,3.8-2.4,8.3-1.1,12.4c0.2,0.6,0,1.3-0.4,1.8
					l-15.7,17.4c-0.1,0-0.2-0.1-0.3-0.1c-5.2-2.5-11.4-0.4-14,4.8c-2.5,5.2-0.4,11.4,4.8,14c5.2,2.5,11.4,0.4,14-4.8
					c1.4-2.8,1.4-6,0.1-8.9c-0.3-0.7-0.2-1.5,0.4-2l13.7-14c0.7-0.7,1.8-0.7,2.5-0.1c3.3,2.8,7.5,4.3,11.8,4c0.9,0,1.7,0.6,1.9,1.5
					l5.4,26.9c0.2,0.8-0.2,1.5-0.8,1.9c-6,3.5-7.9,11.3-4.4,17.2c3.5,6,11.3,7.9,17.2,4.4s7.9-11.3,4.4-17.2
					C1774.2,331.1,1772.5,329.5,1770.4,328.4z"/>
			</g>
		</g>
		<g id="Layer_2_9_" class="st1">
			<g id="Layer_8_8_">
				<path class="st2" d="M1648.2,708.9c0.9-0.8,1.7-1.8,2.3-2.8c0.4-0.7,1.2-1,1.9-0.9l29.7,5.9c0.6,0.1,1.1,0.5,1.3,1.1
					c0.9,2.2,2.3,4.1,4,5.7c6.5,6,16.6,5.9,22.9-0.2c6.7-6.4,6.9-17,0.5-23.7c-3-3.1-7.1-5-11.4-5.1c-0.6,0-1.2-0.4-1.5-1
					l-11.3-20.6c0.1-0.1,0.2-0.2,0.2-0.2c4.1-4.1,4.1-10.7,0-14.8c-4.1-4.1-10.7-4.1-14.8,0c-4.1,4.1-4.1,10.7,0,14.8
					c2.2,2.2,5.2,3.3,8.3,3c0.8-0.1,1.5,0.3,1.8,1l8.8,17.6c0.4,0.9,0.1,1.9-0.7,2.4c-3.7,2.2-6.5,5.7-7.7,9.8
					c-0.3,0.9-1.1,1.4-2,1.3l-27.2-3.7c-0.8-0.1-1.4-0.7-1.6-1.4c-1.4-6.8-8-11.2-14.8-9.8s-11.2,8-9.8,14.8
					c1.4,6.8,8,11.2,14.8,9.8C1644.4,711.6,1646.5,710.5,1648.2,708.9z"/>
			</g>
		</g>
		<g id="Layer_2_10_" class="st1">
			<g id="Layer_8_9_">
				<path class="st2" d="M1370.2,976.5c0.9-0.8,1.7-1.8,2.3-2.8c0.4-0.7,1.2-1,1.9-0.9l29.7,5.9c0.6,0.1,1.1,0.5,1.3,1.1
					c0.9,2.2,2.3,4.1,4,5.7c6.4,6,16.6,5.9,22.9-0.2c6.7-6.4,6.9-17,0.5-23.7c-3-3.1-7.1-5-11.4-5.1c-0.6,0-1.2-0.4-1.5-1
					l-11.3-20.6c0.1-0.1,0.2-0.2,0.2-0.2c4.1-4.1,4.1-10.7,0-14.8c-4.1-4.1-10.7-4.1-14.8,0c-4.1,4.1-4.1,10.7,0,14.8
					c2.2,2.2,5.2,3.3,8.3,3c0.8-0.1,1.5,0.3,1.8,1l8.8,17.6c0.4,0.9,0.1,1.9-0.7,2.4c-3.7,2.2-6.5,5.7-7.7,9.8
					c-0.3,0.9-1.1,1.4-2,1.3l-27.2-3.7c-0.8-0.1-1.4-0.7-1.6-1.4c-1.4-6.8-8-11.2-14.8-9.8s-11.2,8-9.8,14.8
					c1.4,6.8,8,11.2,14.8,9.8C1366.5,979.2,1368.6,978.1,1370.2,976.5z"/>
			</g>
		</g>
		<g id="Layer_2_20_" class="st1">
			<g id="Layer_8_19_">
				<path class="st2" d="M1708.6,888.9c6.1,1.3,12-2.7,13.3-8.7c1.3-6.1-2.7-12-8.7-13.3s-12,2.7-13.3,8.7c-0.1,0.7-0.7,1.2-1.4,1.3
					l-24.3,3.3c-0.8,0.1-1.6-0.4-1.8-1.2c-1.1-3.7-3.5-6.9-6.9-8.8c-0.7-0.4-1-1.4-0.6-2.2l7.9-15.7c0.3-0.6,0.9-1,1.6-0.9
					c2.8,0.2,5.5-0.7,7.4-2.7c3.6-3.6,3.6-9.6,0-13.2c-3.6-3.6-9.6-3.6-13.2,0c-3.6,3.6-3.6,9.6,0,13.2c0.1,0.1,0.1,0.1,0.2,0.2
					l-10.1,18.4c-0.3,0.5-0.8,0.8-1.4,0.9c-3.9,0.2-7.5,1.8-10.2,4.6c-5.7,6-5.5,15.4,0.5,21.2c5.7,5.4,14.7,5.5,20.5,0.2
					c1.5-1.4,2.8-3.2,3.6-5.1c0.2-0.5,0.7-0.9,1.2-1l26.5-5.3c0.7-0.1,1.4,0.2,1.7,0.8c0.6,0.9,1.2,1.8,2,2.5
					C1704.7,887.5,1706.6,888.4,1708.6,888.9z"/>
			</g>
		</g>
		<g id="Layer_2_15_" class="st1">
			<g id="Layer_8_14_">
				<path class="st2" d="M1866.4,245.6c2.8-3.7,2.2-8.9-1.5-11.8c-3.7-2.8-8.9-2.2-11.8,1.5c-2.8,3.7-2.2,8.9,1.5,11.8
					c0.4,0.3,0.6,0.9,0.4,1.4l-5.8,17.4c-0.2,0.6-0.8,0.9-1.4,0.8c-2.8-0.5-5.8,0.1-8.2,1.7c-0.5,0.4-1.3,0.2-1.7-0.3l-7.9-10.4
					c-0.3-0.4-0.3-1-0.1-1.4c1.1-1.8,1.3-3.9,0.6-5.9c-1.2-3.6-5.2-5.6-8.9-4.4s-5.6,5.2-4.4,8.9c1.2,3.6,5.2,5.6,8.9,4.4
					c0.1,0,0.1,0,0.2-0.1l9,12.8c0.3,0.4,0.3,0.8,0.1,1.2c-1.2,2.6-1.3,5.6-0.3,8.3c2.1,5.8,8.5,8.8,14.3,6.7
					c5.5-2,8.6-8.1,6.9-13.7c-0.4-1.5-1.2-2.9-2.2-4.1c-0.3-0.3-0.4-0.7-0.2-1.1l5.2-19.5c0.1-0.5,0.6-0.9,1.1-0.9
					c0.8-0.1,1.6-0.2,2.4-0.5C1864.2,247.8,1865.5,246.8,1866.4,245.6z"/>
			</g>
		</g>
		<g id="Layer_2_13_" class="st1">
			<g id="Layer_8_12_">
				<path class="st2" d="M1822,631.2c-2.5-3.9-7.7-4.9-11.6-2.4s-4.9,7.7-2.4,11.6c2.5,3.9,7.7,4.9,11.6,2.4c0.4-0.3,1-0.3,1.4,0.1
					l14.6,11.1c0.5,0.4,0.6,1,0.3,1.6c-1.4,2.5-1.8,5.5-1,8.3c0.2,0.6-0.2,1.3-0.8,1.5l-12.4,4.1c-0.5,0.2-1,0-1.3-0.4
					c-1.3-1.6-3.3-2.5-5.4-2.5c-3.9,0-7,3.1-7,7c0,3.9,3.1,7,7,7c3.9,0,7-3.1,7-7c0-0.1,0-0.2,0-0.2l15-4.4c0.4-0.1,0.9,0,1.2,0.3
					c2.1,1.9,4.9,3,7.8,2.9c6.2-0.1,11.1-5.2,10.9-11.4c-0.1-5.9-4.9-10.7-10.7-10.9c-1.6-0.1-3.1,0.2-4.6,0.8
					c-0.4,0.1-0.8,0.1-1.1-0.1l-16.8-11.2c-0.4-0.3-0.6-0.8-0.5-1.3c0.2-0.8,0.3-1.6,0.3-2.4C1823.3,634,1822.8,632.5,1822,631.2z"
					/>
			</g>
		</g>
		<g id="Layer_2_12_" class="st1">
			<g id="Layer_8_11_">
				<path class="st2" d="M1542,902.4c-2.5-3.9-7.7-4.9-11.6-2.4s-4.9,7.7-2.4,11.6s7.7,4.9,11.6,2.4c0.4-0.3,1-0.3,1.4,0.1
					l14.6,11.1c0.5,0.4,0.6,1,0.3,1.6c-1.4,2.5-1.8,5.5-1,8.3c0.2,0.6-0.2,1.3-0.8,1.5l-12.4,4.1c-0.5,0.2-1,0-1.3-0.4
					c-1.3-1.6-3.3-2.5-5.4-2.5c-3.9,0-7,3.1-7,7c0,3.9,3.1,7,7,7c3.9,0,7-3.1,7-7c0-0.1,0-0.2,0-0.2l15-4.4c0.4-0.1,0.9,0,1.2,0.3
					c2.1,1.9,4.9,3,7.8,2.9c6.2-0.1,11.1-5.2,10.9-11.4c-0.1-5.9-4.9-10.7-10.7-10.9c-1.6-0.1-3.1,0.2-4.6,0.8
					c-0.4,0.1-0.8,0.1-1.1-0.1l-16.8-11.2c-0.4-0.3-0.6-0.8-0.5-1.3c0.2-0.8,0.3-1.6,0.3-2.4C1543.4,905.1,1542.9,903.6,1542,902.4z
					"/>
			</g>
		</g>
		<g id="Layer_2_39_" class="st1">
			<g id="Layer_8_38_">
				<path class="st2" d="M1601.2,549.4c-1.6,0.5-3,1.2-4.4,2.1c-0.9,0.6-2,0.5-2.8-0.1l-32.2-24.6c-0.6-0.5-1-1.3-1-2.1
					c0.2-3.1-0.4-6.3-1.5-9.2c-4.2-11-16.5-16.9-27.7-13.3c-11.8,3.8-18.3,16.4-14.5,28.2c1.8,5.5,5.6,10.1,10.7,12.9
					c0.8,0.4,1.2,1.2,1.3,2.1l1.5,31.4c-0.1,0-0.3,0.1-0.4,0.1c-7.3,2.5-11.2,10.5-8.7,17.8c2.5,7.3,10.5,11.2,17.8,8.7
					c7.3-2.5,11.2-10.5,8.7-17.8c-1.3-3.9-4.4-7.1-8.2-8.5c-0.9-0.4-1.6-1.3-1.6-2.3l-0.2-26.3c0-1.3,1-2.4,2.3-2.5
					c5.8-0.4,11.1-3,15-7.3c0.8-0.9,2.2-1.1,3.2-0.4l30.6,20.5c0.9,0.6,1.3,1.6,1,2.6c-2.3,9,3.1,18.2,12.1,20.5
					c9,2.3,18.2-3.1,20.5-12.1c2.3-9-3.1-18.2-12.1-20.5C1607.4,548.4,1604.2,548.5,1601.2,549.4z"/>
			</g>
		</g>
		<g id="Layer_2_38_" class="st1">
			<g id="Layer_8_37_">
				<path class="st2" d="M1590.8,248.9c-1.6,0.5-3,1.2-4.4,2.1c-0.9,0.6-2,0.5-2.8-0.1l-32.2-24.6c-0.6-0.5-1-1.3-1-2.1
					c0.2-3.1-0.4-6.3-1.5-9.2c-4.2-11-16.5-16.9-27.7-13.3c-11.8,3.8-18.3,16.4-14.5,28.2c1.8,5.5,5.6,10.1,10.7,12.9
					c0.8,0.4,1.2,1.2,1.3,2.1l1.5,31.4c-0.1,0-0.3,0.1-0.4,0.1c-7.3,2.5-11.2,10.5-8.7,17.8s10.5,11.2,17.8,8.7
					c7.3-2.5,11.2-10.5,8.7-17.8c-1.3-3.9-4.4-7.1-8.2-8.5c-0.9-0.4-1.6-1.3-1.6-2.3l-0.2-26.3c0-1.3,1-2.4,2.3-2.5
					c5.8-0.4,11.1-3,15-7.3c0.8-0.9,2.2-1.1,3.2-0.4l30.6,20.5c0.9,0.6,1.3,1.6,1,2.6c-2.3,9,3.1,18.2,12.1,20.5
					c9,2.3,18.2-3.1,20.5-12.1c2.3-9-3.1-18.2-12.1-20.5C1596.9,247.9,1593.8,248,1590.8,248.9z"/>
			</g>
		</g>
		<g id="Layer_2_36_" class="st1">
			<g id="Layer_8_35_">
				<path class="st2" d="M1800.9,578.9c-1.1,0.6-2.1,1.3-2.9,2.1c-0.6,0.5-1.4,0.7-2.1,0.3l-27.2-13.4c-0.5-0.3-0.9-0.8-1-1.4
					c-0.3-2.3-1.2-4.5-2.4-6.5c-4.7-7.4-14.5-10-22.2-5.7c-8.1,4.5-11,14.6-6.6,22.7c2.1,3.8,5.5,6.6,9.7,7.9
					c0.6,0.2,1.1,0.7,1.2,1.3l5.6,22.8c-0.1,0.1-0.2,0.1-0.3,0.2c-5,2.9-6.7,9.3-3.8,14.3c2.9,5,9.3,6.7,14.3,3.8s6.7-9.3,3.8-14.3
					c-1.6-2.7-4.2-4.5-7.3-5.1c-0.7-0.1-1.3-0.7-1.5-1.4l-4-19.2c-0.2-0.9,0.4-1.9,1.3-2.2c4.2-1.1,7.7-3.8,9.9-7.5
					c0.5-0.8,1.4-1.1,2.3-0.7l25.4,10.6c0.7,0.3,1.2,1,1.1,1.8c-0.4,6.9,4.9,12.9,11.8,13.2s12.9-4.9,13.2-11.8
					c0.4-6.9-4.9-12.9-11.8-13.2C1805.2,577.3,1802.9,577.8,1800.9,578.9z"/>
			</g>
		</g>
		<g id="Layer_2_32_" class="st1">
			<g id="Layer_8_31_">
				<path class="st2" d="M1705.2,466.3c0.6-1.1,1-2.2,1.2-3.4c0.2-0.8,0.8-1.3,1.5-1.4l30-4c0.6-0.1,1.2,0.1,1.6,0.6
					c1.6,1.7,3.5,3.1,5.6,4.1c8,3.6,17.6,0.2,21.6-7.6c4.2-8.2,1-18.3-7.2-22.6c-3.8-2-8.3-2.4-12.4-1.2c-0.6,0.2-1.3,0-1.8-0.4
					l-17.3-15.8c0.1-0.1,0.1-0.2,0.2-0.3c2.5-5.2,0.4-11.4-4.8-14s-11.4-0.4-14,4.8c-2.5,5.2-0.4,11.4,4.8,14c2.8,1.4,6,1.4,8.9,0.2
					c0.7-0.3,1.5-0.2,2,0.4l14,13.8c0.7,0.7,0.7,1.8,0.1,2.5c-2.8,3.3-4.3,7.5-4.1,11.8c0,0.9-0.6,1.7-1.5,1.9l-26.9,5.3
					c-0.8,0.2-1.5-0.2-1.9-0.9c-3.5-6-11.2-7.9-17.2-4.4s-7.9,11.2-4.4,17.2c3.5,6,11.2,7.9,17.2,4.4
					C1702.5,470,1704.1,468.3,1705.2,466.3z"/>
			</g>
		</g>
		<g id="Layer_2_31_" class="st1">
			<g id="Layer_8_30_">
				<path class="st2" d="M1549.6,798.6c0.6-1.1,1-2.2,1.2-3.4c0.2-0.8,0.8-1.3,1.5-1.4l30-4c0.6-0.1,1.2,0.1,1.6,0.6
					c1.6,1.7,3.5,3.1,5.6,4.1c8,3.6,17.6,0.2,21.6-7.6c4.2-8.2,1-18.3-7.2-22.6c-3.8-2-8.3-2.4-12.4-1.2c-0.6,0.2-1.3,0-1.8-0.4
					l-17.3-15.8c0.1-0.1,0.1-0.2,0.2-0.3c2.5-5.2,0.4-11.4-4.8-14s-11.4-0.4-14,4.8c-2.5,5.2-0.4,11.4,4.8,14c2.8,1.4,6,1.4,8.9,0.2
					c0.7-0.3,1.5-0.2,2,0.4l14,13.8c0.7,0.7,0.7,1.8,0.1,2.5c-2.8,3.3-4.3,7.5-4.1,11.8c0,0.9-0.6,1.7-1.5,1.9l-26.9,5.3
					c-0.8,0.2-1.5-0.2-1.9-0.9c-3.5-6-11.2-7.9-17.2-4.4s-7.9,11.2-4.4,17.2c3.5,6,11.2,7.9,17.2,4.4
					C1546.9,802.3,1548.5,800.6,1549.6,798.6z"/>
			</g>
		</g>
		<g id="Layer_2_30_" class="st1">
			<g id="Layer_8_29_">
				<path class="st2" d="M1683.5,179.8c6.1-0.8,10.5-6.4,9.7-12.6c-0.8-6.1-6.4-10.5-12.6-9.7c-6.1,0.8-10.5,6.4-9.7,12.6
					c0.1,0.7-0.3,1.4-0.9,1.7l-22,11c-0.7,0.4-1.6,0.1-2.1-0.5c-2.2-3.2-5.6-5.3-9.3-6.1c-0.8-0.2-1.4-1-1.3-1.8l2.3-17.4
					c0.1-0.7,0.6-1.2,1.2-1.4c2.7-0.7,4.9-2.5,6.2-5c2.3-4.6,0.3-10.2-4.3-12.5c-4.6-2.3-10.2-0.3-12.5,4.3
					c-2.3,4.6-0.3,10.2,4.3,12.5c0.1,0,0.2,0.1,0.3,0.1l-3.6,20.7c-0.1,0.6-0.5,1-1,1.3c-3.6,1.4-6.5,4.1-8.1,7.6
					c-3.5,7.5-0.2,16.4,7.3,19.9c7.1,3.3,15.7,0.4,19.5-6.5c1-1.8,1.6-3.9,1.8-6c0-0.5,0.3-1,0.8-1.3l23.4-13.6
					c0.6-0.3,1.4-0.3,1.9,0.2c0.8,0.7,1.7,1.3,2.7,1.7C1679.4,179.7,1681.4,180,1683.5,179.8z"/>
			</g>
		</g>
		<g id="Layer_2_25_" class="st1">
			<g id="Layer_8_24_">
				<path class="st2" d="M1746.9,772.7c-3.7-2.8-8.9-2.2-11.8,1.5s-2.2,8.9,1.5,11.8c3.7,2.8,8.9,2.2,11.8-1.5
					c0.3-0.4,0.9-0.6,1.4-0.4l17.4,5.8c0.6,0.2,0.9,0.8,0.8,1.4c-0.5,2.8,0.1,5.8,1.7,8.2c0.4,0.5,0.2,1.3-0.3,1.7l-10.4,8
					c-0.4,0.3-1,0.3-1.4,0.1c-1.8-1.1-3.9-1.3-5.9-0.6c-3.6,1.3-5.6,5.2-4.3,8.9c1.3,3.6,5.2,5.6,8.9,4.3s5.6-5.2,4.3-8.9
					c0-0.1,0-0.1-0.1-0.2l12.8-9c0.4-0.3,0.8-0.3,1.2-0.1c2.6,1.2,5.6,1.2,8.3,0.3c5.8-2.1,8.8-8.5,6.6-14.3
					c-2-5.5-8.1-8.5-13.7-6.8c-1.5,0.4-2.9,1.2-4.1,2.2c-0.3,0.3-0.7,0.4-1.1,0.3l-19.5-5.1c-0.5-0.1-0.9-0.6-0.9-1.1
					c-0.1-0.8-0.2-1.6-0.5-2.4C1749,774.9,1748.1,773.7,1746.9,772.7z"/>
			</g>
		</g>
		<g id="Layer_2_23_" class="st1">
			<g id="Layer_8_22_">
				<path class="st2" d="M1823.6,354.5c-3.7-2.8-8.9-2.2-11.8,1.5c-2.8,3.7-2.2,8.9,1.5,11.8c3.7,2.8,8.9,2.2,11.8-1.5
					c0.3-0.4,0.9-0.6,1.4-0.4l17.4,5.8c0.6,0.2,0.9,0.8,0.8,1.4c-0.5,2.8,0.1,5.8,1.7,8.2c0.4,0.5,0.2,1.3-0.3,1.7l-10.4,8
					c-0.4,0.3-1,0.3-1.4,0.1c-1.8-1.1-3.9-1.3-5.9-0.6c-3.6,1.3-5.6,5.2-4.3,8.9c1.3,3.6,5.2,5.6,8.9,4.3s5.6-5.2,4.3-8.9
					c0-0.1,0-0.1-0.1-0.2l12.8-9c0.4-0.3,0.8-0.3,1.2-0.1c2.6,1.2,5.6,1.2,8.3,0.3c5.8-2.1,8.8-8.5,6.6-14.3
					c-2-5.5-8.1-8.5-13.7-6.8c-1.5,0.4-2.9,1.2-4.1,2.2c-0.3,0.3-0.7,0.4-1.1,0.3l-19.5-5.1c-0.5-0.1-0.9-0.6-0.9-1.1
					c-0.1-0.8-0.2-1.6-0.5-2.4C1825.7,356.7,1824.8,355.4,1823.6,354.5z"/>
			</g>
		</g>
		<g id="Layer_2_22_" class="st1">
			<g id="Layer_8_21_">
				<path class="st2" d="M1849.5,509.5c0.2,4.6,4.2,8.2,8.8,8c4.6-0.2,8.2-4.2,8-8.8s-4.2-8.2-8.8-8c-0.5,0-1-0.3-1.2-0.8l-6.9-17
					c-0.2-0.6,0-1.2,0.5-1.5c2.5-1.5,4.3-3.8,5.1-6.6c0.2-0.6,0.8-1,1.4-0.9l12.8,2.8c0.5,0.1,0.9,0.5,1,1c0.3,2,1.6,3.8,3.3,4.9
					c3.3,2,7.6,0.9,9.6-2.5c2-3.3,0.9-7.6-2.5-9.6s-7.6-0.9-9.6,2.5c0,0.1-0.1,0.1-0.1,0.2l-15.2-3.9c-0.4-0.1-0.8-0.4-0.9-0.8
					c-0.8-2.8-2.7-5.1-5.2-6.5c-5.4-3-12.2-1.1-15.2,4.3c-2.9,5.1-1.2,11.7,3.7,14.9c1.3,0.9,2.8,1.4,4.3,1.7
					c0.4,0.1,0.7,0.3,0.9,0.7l8.8,18.2c0.2,0.5,0.1,1-0.2,1.4c-0.6,0.6-1.1,1.2-1.4,1.9C1849.7,506.4,1849.4,507.9,1849.5,509.5z"/>
			</g>
		</g>
		<g id="Layer_2_41_" class="st1">
			<g id="Layer_8_40_">
				<path class="st2" d="M1481.7,109c4.6-0.6,7.9-4.7,7.3-9.3c-0.6-4.6-4.7-7.9-9.3-7.3c-4.6,0.6-7.9,4.7-7.3,9.3
					c0.1,0.5-0.2,1-0.7,1.2l-16.4,8.1c-0.5,0.3-1.2,0.1-1.6-0.4c-1.6-2.4-4.1-4-7-4.6c-0.6-0.1-1.1-0.7-1-1.4l1.8-13
					c0.1-0.5,0.4-0.9,0.9-1c2-0.5,3.7-1.8,4.6-3.7c1.7-3.5,0.3-7.6-3.2-9.3c-3.5-1.7-7.6-0.3-9.3,3.2c-1.7,3.5-0.3,7.6,3.2,9.3
					c0.1,0,0.1,0.1,0.2,0.1l-2.7,15.4c-0.1,0.4-0.4,0.8-0.8,0.9c-2.7,1-4.9,3.1-6.1,5.7c-2.6,5.6-0.2,12.2,5.4,14.9
					c5.3,2.5,11.7,0.4,14.5-4.8c0.8-1.4,1.2-2.9,1.3-4.5c0-0.4,0.3-0.8,0.6-1l17.5-10.1c0.5-0.3,1-0.2,1.4,0.1c0.6,0.5,1.3,1,2,1.3
					C1478.6,108.9,1480.1,109.2,1481.7,109z"/>
			</g>
		</g>
	</g>
	<g>
		<g id="Layer_2_1_" class="st1">
			<g id="Layer_8">
				<path class="st2" d="M292.8,236.4c1.6,0.1,3.2-0.1,4.7-0.5c1-0.2,2,0.2,2.6,1l21.9,33.3c0.4,0.7,0.5,1.5,0.2,2.2
					c-1.2,2.9-1.7,5.9-1.6,9c0.4,11.6,9.8,21,21.4,21.3c12.1,0.3,22.3-9.2,22.6-21.4c0.2-5.7-1.9-11.2-5.7-15.4
					c-0.6-0.6-0.8-1.5-0.5-2.3l8.8-29.5c0.1,0,0.3,0,0.4,0c7.6,0,13.8-6.1,13.8-13.6s-6.1-13.8-13.6-13.8c-7.6,0-13.8,6.1-13.8,13.6
					c0,4.1,1.8,7.9,4.9,10.6c0.8,0.6,1,1.7,0.7,2.6l-8.3,24.4c-0.4,1.2-1.7,1.9-2.9,1.6c-5.5-1.5-11.3-0.8-16.3,1.9
					c-1.1,0.6-2.4,0.3-3.1-0.7l-21.7-28.9c-0.6-0.8-0.7-1.9-0.1-2.8c5.1-7.6,3-17.8-4.6-22.9s-17.8-3-22.9,4.6
					c-5.1,7.6-3,17.8,4.6,22.9C286.9,235.4,289.8,236.3,292.8,236.4z"/>
			</g>
		</g>
		<g id="Layer_2_4_" class="st1">
			<g id="Layer_8_3_">
				<path class="st2" d="M489.8,749c-1.6-0.1-3.2,0.1-4.7,0.5c-1,0.3-2-0.1-2.6-1l-22.1-33.1c-0.4-0.7-0.5-1.5-0.2-2.2
					c1.1-2.9,1.7-5.9,1.5-9c-0.4-11.6-9.9-20.9-21.5-21.2c-12.1-0.3-22.2,9.4-22.5,21.5c-0.1,5.7,2,11.2,5.8,15.4
					c0.6,0.6,0.8,1.5,0.5,2.3l-8.6,29.6c-0.1,0-0.3,0-0.4,0c-7.6,0-13.7,6.1-13.7,13.7c0,7.6,6.1,13.7,13.7,13.7
					c7.6,0,13.7-6.1,13.7-13.7c0-4.1-1.8-7.9-4.9-10.5c-0.8-0.6-1.1-1.7-0.7-2.6l8.2-24.5c0.4-1.2,1.7-1.9,2.9-1.6
					c5.5,1.5,11.3,0.7,16.3-2c1.1-0.6,2.4-0.3,3.1,0.7l21.9,28.7c0.6,0.8,0.7,1.9,0.1,2.8c-5,7.6-2.9,17.8,4.7,22.9
					c7.6,5,17.8,2.9,22.9-4.7c5-7.6,2.9-17.8-4.7-22.9C495.8,750,492.9,749.1,489.8,749z"/>
			</g>
		</g>
		<g id="Layer_2_7_" class="st1">
			<g id="Layer_8_6_">
				<path class="st2" d="M199.4,629.9c0.9-0.8,1.6-1.7,2.2-2.8c0.4-0.7,1.1-1,1.9-0.8l29.1,5.8c0.6,0.1,1.1,0.5,1.3,1
					c0.9,2.1,2.3,4,3.9,5.6c6.3,5.9,16.3,5.8,22.5-0.2c6.6-6.3,6.8-16.7,0.5-23.2c-2.9-3.1-6.9-4.9-11.2-5.1c-0.6,0-1.2-0.4-1.5-0.9
					l-11.1-20.2c0.1-0.1,0.2-0.2,0.2-0.2c4-4,4-10.5,0-14.5s-10.5-4-14.5,0c-4,4-4,10.5,0,14.5c2.2,2.2,5.1,3.2,8.2,3
					c0.7-0.1,1.4,0.3,1.8,1l8.6,17.2c0.4,0.9,0.1,1.9-0.7,2.4c-3.7,2.1-6.4,5.6-7.5,9.7c-0.3,0.9-1.1,1.4-2,1.3l-26.7-3.6
					c-0.8-0.1-1.4-0.7-1.5-1.4c-1.4-6.7-7.9-11-14.6-9.6s-11,7.9-9.6,14.6c1.4,6.7,7.9,11,14.6,9.6
					C195.7,632.5,197.8,631.5,199.4,629.9z"/>
			</g>
		</g>
		<g id="Layer_2_6_" class="st1">
			<g id="Layer_8_5_">
				<path class="st2" d="M315.1,849.5c0.9-0.8,1.6-1.7,2.2-2.8c0.4-0.7,1.1-1,1.9-0.8l29.1,5.8c0.6,0.1,1.1,0.5,1.3,1
					c0.9,2.1,2.3,4,3.9,5.6c6.3,5.9,16.3,5.8,22.5-0.2c6.6-6.3,6.8-16.7,0.5-23.2c-2.9-3.1-6.9-4.9-11.2-5.1c-0.6,0-1.2-0.4-1.5-0.9
					l-11.1-20.2c0.1-0.1,0.2-0.2,0.2-0.2c4-4,4-10.5,0-14.5s-10.5-4-14.5,0s-4,10.5,0,14.5c2.2,2.2,5.1,3.2,8.2,3
					c0.7-0.1,1.4,0.3,1.8,1l8.6,17.2c0.4,0.9,0.1,1.9-0.7,2.4c-3.7,2.1-6.4,5.6-7.5,9.7c-0.3,0.9-1.1,1.4-2,1.3l-26.7-3.6
					c-0.8-0.1-1.4-0.7-1.5-1.4c-1.4-6.7-7.9-11-14.6-9.6c-6.7,1.4-11,7.9-9.6,14.6c1.4,6.7,7.9,11,14.6,9.6
					C311.4,852.1,313.5,851.1,315.1,849.5z"/>
			</g>
		</g>
		<g id="Layer_2_5_" class="st1">
			<g id="Layer_8_4_">
				<path class="st2" d="M476.9,319.4c0.9-0.8,1.6-1.7,2.2-2.8c0.4-0.7,1.1-1,1.9-0.8l29.1,5.8c0.6,0.1,1.1,0.5,1.3,1
					c0.9,2.1,2.3,4,3.9,5.6c6.3,5.9,16.3,5.8,22.5-0.2c6.6-6.3,6.8-16.7,0.5-23.2c-2.9-3.1-6.9-4.9-11.2-5.1c-0.6,0-1.2-0.4-1.5-0.9
					l-11.1-20.2c0.1-0.1,0.2-0.2,0.2-0.2c4-4,4-10.5,0-14.5s-10.5-4-14.5,0s-4,10.5,0,14.5c2.2,2.2,5.1,3.2,8.2,3
					c0.7-0.1,1.4,0.3,1.8,1l8.6,17.2c0.4,0.9,0.1,1.9-0.7,2.4c-3.7,2.1-6.4,5.6-7.5,9.7c-0.3,0.9-1.1,1.4-2,1.3l-26.7-3.6
					c-0.8-0.1-1.4-0.7-1.5-1.4c-1.4-6.7-7.9-11-14.6-9.6c-6.7,1.4-11,7.9-9.6,14.6c1.4,6.7,7.9,11,14.6,9.6
					C473.2,322,475.2,320.9,476.9,319.4z"/>
			</g>
		</g>
		<g id="Layer_2_19_" class="st1">
			<g id="Layer_8_18_">
				<path class="st2" d="M398,585.9c6,1.2,11.8-2.6,13-8.6c1.2-6-2.6-11.8-8.6-13s-11.8,2.6-13,8.6c-0.1,0.7-0.7,1.2-1.4,1.3
					l-23.9,3.2c-0.8,0.1-1.5-0.4-1.8-1.1c-1-3.6-3.5-6.7-6.7-8.6c-0.7-0.4-1-1.4-0.6-2.1l7.7-15.4c0.3-0.6,0.9-0.9,1.6-0.9
					c2.7,0.2,5.4-0.7,7.3-2.7c3.6-3.6,3.6-9.4,0-13c-3.6-3.6-9.4-3.6-13,0s-3.6,9.4,0,13c0.1,0.1,0.1,0.1,0.2,0.2l-9.9,18
					c-0.3,0.5-0.8,0.8-1.3,0.8c-3.8,0.2-7.4,1.8-10,4.5c-5.6,5.9-5.4,15.2,0.5,20.8c5.6,5.3,14.5,5.4,20.1,0.2
					c1.5-1.4,2.7-3.1,3.5-5c0.2-0.5,0.6-0.8,1.2-0.9L389,580c0.7-0.1,1.3,0.2,1.7,0.8c0.5,0.9,1.2,1.8,2,2.5
					C394.2,584.6,396,585.5,398,585.9z"/>
			</g>
		</g>
		<g id="Layer_2_18_" class="st1">
			<g id="Layer_8_17_">
				<path class="st2" d="M294.6,782.3c6,1.2,11.8-2.6,13-8.6c1.2-6-2.6-11.8-8.6-13c-6-1.2-11.8,2.6-13,8.6
					c-0.1,0.7-0.7,1.2-1.4,1.3l-23.9,3.2c-0.8,0.1-1.5-0.4-1.8-1.1c-1-3.6-3.5-6.7-6.7-8.6c-0.7-0.4-1-1.4-0.6-2.1l7.7-15.4
					c0.3-0.6,0.9-0.9,1.6-0.9c2.7,0.2,5.4-0.7,7.3-2.7c3.6-3.6,3.6-9.4,0-13s-9.4-3.6-13,0c-3.6,3.6-3.6,9.4,0,13
					c0.1,0.1,0.1,0.1,0.2,0.2l-9.9,18c-0.3,0.5-0.8,0.8-1.3,0.8c-3.8,0.2-7.4,1.8-10,4.5c-5.6,5.9-5.4,15.2,0.5,20.8
					c5.6,5.3,14.5,5.4,20.1,0.2c1.5-1.4,2.7-3.1,3.5-5c0.2-0.5,0.6-0.8,1.2-0.9l26.1-5.2c0.7-0.1,1.3,0.2,1.7,0.8
					c0.5,0.9,1.2,1.8,2,2.5C290.8,780.9,292.6,781.9,294.6,782.3z"/>
			</g>
		</g>
		<g id="Layer_2_17_" class="st1">
			<g id="Layer_8_16_">
				<path class="st2" d="M204.4,319.5c6,1.2,11.8-2.6,13-8.6s-2.6-11.8-8.6-13c-6-1.2-11.8,2.6-13,8.6c-0.1,0.7-0.7,1.2-1.4,1.3
					l-23.9,3.2c-0.8,0.1-1.5-0.4-1.8-1.1c-1-3.6-3.5-6.7-6.7-8.6c-0.7-0.4-1-1.4-0.6-2.1l7.7-15.4c0.3-0.6,0.9-0.9,1.6-0.9
					c2.7,0.2,5.4-0.7,7.3-2.7c3.6-3.6,3.6-9.4,0-13s-9.4-3.6-13,0c-3.6,3.6-3.6,9.4,0,13c0.1,0.1,0.1,0.1,0.2,0.2l-9.9,18
					c-0.3,0.5-0.8,0.8-1.3,0.8c-3.8,0.2-7.4,1.8-10,4.5c-5.6,5.9-5.4,15.2,0.5,20.8c5.6,5.3,14.5,5.4,20.1,0.2
					c1.5-1.4,2.7-3.1,3.5-5c0.2-0.5,0.6-0.8,1.2-0.9l26.1-5.2c0.7-0.1,1.3,0.2,1.7,0.8c0.5,0.9,1.2,1.8,2,2.5
					C200.6,318.2,202.4,319.1,204.4,319.5z"/>
			</g>
		</g>
		<g id="Layer_2_16_" class="st1">
			<g id="Layer_8_15_">
				<path class="st2" d="M103.3,611.3c-2.5-3.8-7.6-4.8-11.4-2.4c-3.8,2.5-4.8,7.6-2.4,11.4c2.5,3.8,7.6,4.8,11.4,2.4
					c0.4-0.3,1-0.3,1.4,0.1l14.3,10.9c0.5,0.4,0.6,1,0.3,1.5c-1.4,2.5-1.7,5.4-1,8.1c0.2,0.6-0.2,1.2-0.8,1.4l-12.2,4.1
					c-0.5,0.2-1,0-1.3-0.4c-1.3-1.6-3.2-2.5-5.3-2.5c-3.8,0-6.8,3.1-6.8,6.8c0,3.8,3.1,6.8,6.8,6.8s6.8-3.1,6.8-6.8
					c0-0.1,0-0.1,0-0.2l14.8-4.3c0.4-0.1,0.8,0,1.2,0.3c2.1,1.9,4.8,2.9,7.7,2.9c6.1-0.1,10.9-5.1,10.7-11.2
					c-0.1-5.8-4.8-10.5-10.5-10.7c-1.5-0.1-3.1,0.2-4.5,0.8c-0.4,0.1-0.8,0.1-1.1-0.1l-16.5-11c-0.4-0.3-0.6-0.8-0.5-1.3
					c0.2-0.8,0.3-1.6,0.3-2.4C104.6,614,104.1,612.6,103.3,611.3z"/>
			</g>
		</g>
		<g id="Layer_2_14_" class="st1">
			<g id="Layer_8_13_">
				<path class="st2" d="M194,131.5c-2.5-3.8-7.6-4.8-11.4-2.4c-3.8,2.5-4.8,7.6-2.4,11.4c2.5,3.8,7.6,4.8,11.4,2.4
					c0.4-0.3,1-0.3,1.4,0.1l14.3,10.9c0.5,0.4,0.6,1,0.3,1.5c-1.4,2.5-1.7,5.4-1,8.1c0.2,0.6-0.2,1.2-0.8,1.4l-12.2,4.1
					c-0.5,0.2-1,0-1.3-0.4c-1.3-1.6-3.2-2.5-5.3-2.5c-3.8,0-6.8,3.1-6.8,6.8c0,3.8,3.1,6.8,6.8,6.8s6.8-3.1,6.8-6.8
					c0-0.1,0-0.1,0-0.2l14.8-4.3c0.4-0.1,0.8,0,1.2,0.3c2.1,1.9,4.8,2.9,7.7,2.9c6.1-0.1,10.9-5.1,10.7-11.2
					c-0.1-5.8-4.8-10.5-10.5-10.7c-1.5-0.1-3.1,0.2-4.5,0.8c-0.4,0.1-0.8,0.1-1.1-0.1l-16.5-11c-0.4-0.3-0.6-0.8-0.5-1.3
					c0.2-0.8,0.3-1.6,0.3-2.4C195.3,134.2,194.9,132.7,194,131.5z"/>
			</g>
		</g>
		<g id="Layer_2_11_" class="st1">
			<g id="Layer_8_10_">
				<path class="st2" d="M407.7,432.9c-2.5-3.8-7.6-4.8-11.4-2.4c-3.8,2.5-4.8,7.6-2.4,11.4c2.5,3.8,7.6,4.8,11.4,2.4
					c0.4-0.3,1-0.3,1.4,0.1l14.3,10.9c0.5,0.4,0.6,1,0.3,1.5c-1.4,2.5-1.7,5.4-1,8.1c0.2,0.6-0.2,1.2-0.8,1.4l-12.2,4.1
					c-0.5,0.2-1,0-1.3-0.4c-1.3-1.6-3.2-2.5-5.3-2.5c-3.8,0-6.8,3.1-6.8,6.8s3.1,6.8,6.8,6.8s6.8-3.1,6.8-6.8c0-0.1,0-0.1,0-0.2
					l14.8-4.3c0.4-0.1,0.8,0,1.2,0.3c2.1,1.9,4.8,2.9,7.7,2.9c6.1-0.1,10.9-5.1,10.7-11.2c-0.1-5.8-4.8-10.5-10.5-10.7
					c-1.5-0.1-3.1,0.2-4.5,0.8c-0.4,0.1-0.8,0.1-1.1-0.1l-16.5-11c-0.4-0.3-0.6-0.8-0.5-1.3c0.2-0.8,0.3-1.6,0.3-2.4
					C409,435.7,408.5,434.2,407.7,432.9z"/>
			</g>
		</g>
		<g id="Layer_2_40_" class="st1">
			<g id="Layer_8_39_">
				<path class="st2" d="M286.1,452c-1.5,0.5-3,1.1-4.3,2c-0.9,0.6-2,0.5-2.8-0.1l-31.6-24.2c-0.6-0.5-1-1.2-1-2
					c0.2-3.1-0.3-6.2-1.5-9c-4.2-10.8-16.2-16.6-27.2-13c-11.6,3.7-18,16.1-14.3,27.6c1.7,5.4,5.5,9.9,10.5,12.6
					c0.7,0.4,1.2,1.2,1.3,2l1.4,30.8c-0.1,0-0.3,0.1-0.4,0.1c-7.2,2.5-11,10.3-8.5,17.4c2.5,7.2,10.3,11,17.4,8.5
					c7.2-2.5,11-10.3,8.5-17.4c-1.3-3.9-4.3-6.9-8.1-8.4c-0.9-0.4-1.5-1.2-1.6-2.2l-0.2-25.8c0-1.3,1-2.3,2.2-2.4
					c5.7-0.4,10.9-3,14.7-7.2c0.8-0.9,2.1-1.1,3.1-0.4l30,20.1c0.9,0.6,1.3,1.6,1,2.6c-2.3,8.8,3,17.8,11.9,20.1
					c8.8,2.3,17.8-3,20.1-11.9c2.3-8.8-3-17.8-11.9-20.1C292.1,451,289,451.1,286.1,452z"/>
			</g>
		</g>
		<g id="Layer_2_35_" class="st1">
			<g id="Layer_8_34_">
				<path class="st2" d="M135.6,835.1c0.6-1.1,1-2.2,1.2-3.3c0.2-0.7,0.8-1.3,1.5-1.4l29.5-3.9c0.6-0.1,1.2,0.1,1.6,0.6
					c1.5,1.7,3.4,3.1,5.5,4c7.9,3.5,17.3,0.2,21.2-7.5c4.2-8.1,1-18-7.1-22.1c-3.8-1.9-8.1-2.4-12.2-1.2c-0.6,0.2-1.3,0-1.7-0.4
					l-17-15.5c0-0.1,0.1-0.2,0.1-0.3c2.5-5.1,0.4-11.2-4.7-13.7c-5.1-2.5-11.2-0.4-13.7,4.7s-0.4,11.2,4.7,13.7
					c2.7,1.3,5.9,1.4,8.7,0.2c0.7-0.3,1.5-0.2,2,0.4l13.7,13.5c0.7,0.7,0.7,1.7,0.1,2.5c-2.8,3.2-4.2,7.3-4,11.6
					c0,0.9-0.6,1.7-1.5,1.9l-26.4,5.2c-0.7,0.2-1.5-0.2-1.9-0.8c-3.5-5.9-11-7.8-16.9-4.3c-5.9,3.5-7.8,11-4.3,16.9
					c3.5,5.9,11,7.8,16.9,4.3C133,838.7,134.6,837.1,135.6,835.1z"/>
			</g>
		</g>
		<g id="Layer_2_34_" class="st1">
			<g id="Layer_8_33_">
				<path class="st2" d="M448.4,121.7c0.6-1.1,1-2.2,1.2-3.3c0.2-0.7,0.8-1.3,1.5-1.4l29.5-3.9c0.6-0.1,1.2,0.1,1.6,0.6
					c1.5,1.7,3.4,3.1,5.5,4c7.9,3.5,17.3,0.2,21.2-7.5c4.2-8.1,1-18-7.1-22.1c-3.8-1.9-8.1-2.4-12.2-1.2c-0.6,0.2-1.3,0-1.7-0.4
					l-17-15.5c0-0.1,0.1-0.2,0.1-0.3c2.5-5.1,0.4-11.2-4.7-13.7c-5.1-2.5-11.2-0.4-13.7,4.7s-0.4,11.2,4.7,13.7
					c2.7,1.3,5.9,1.4,8.7,0.2c0.7-0.3,1.5-0.2,2,0.4l13.7,13.5c0.7,0.7,0.7,1.7,0.1,2.5c-2.8,3.2-4.2,7.3-4,11.6
					c0,0.9-0.6,1.7-1.5,1.9l-26.4,5.2c-0.7,0.2-1.5-0.2-1.9-0.8c-3.5-5.9-11-7.8-16.9-4.3c-5.9,3.5-7.8,11-4.3,16.9s11,7.8,16.9,4.3
					C445.8,125.4,447.4,123.7,448.4,121.7z"/>
			</g>
		</g>
		<g id="Layer_2_33_" class="st1">
			<g id="Layer_8_32_">
				<path class="st2" d="M362.4,384.6c0.6-1.1,1-2.2,1.2-3.3c0.2-0.7,0.8-1.3,1.5-1.4l29.5-3.9c0.6-0.1,1.2,0.1,1.6,0.6
					c1.5,1.7,3.4,3.1,5.5,4c7.9,3.5,17.3,0.2,21.2-7.5c4.2-8.1,1-18-7.1-22.1c-3.8-1.9-8.1-2.4-12.2-1.2c-0.6,0.2-1.3,0-1.7-0.4
					l-17-15.5c0-0.1,0.1-0.2,0.1-0.3c2.5-5.1,0.4-11.2-4.7-13.7s-11.2-0.4-13.7,4.7c-2.5,5.1-0.4,11.2,4.7,13.7
					c2.7,1.3,5.9,1.4,8.7,0.2c0.7-0.3,1.5-0.2,2,0.4l13.7,13.5c0.7,0.7,0.7,1.7,0.1,2.5c-2.8,3.2-4.2,7.3-4,11.6
					c0,0.9-0.6,1.7-1.5,1.9l-26.4,5.2c-0.7,0.2-1.5-0.2-1.9-0.8c-3.5-5.9-11-7.8-16.9-4.3c-5.9,3.5-7.8,11-4.3,16.9
					c3.5,5.9,11,7.8,16.9,4.3C359.7,388.3,361.3,386.6,362.4,384.6z"/>
			</g>
		</g>
		<g id="Layer_2_28_" class="st1">
			<g id="Layer_8_27_">
				<path class="st2" d="M445.2,979.3c6-0.8,10.3-6.3,9.5-12.3c-0.8-6-6.3-10.3-12.3-9.5c-6,0.8-10.3,6.3-9.5,12.3
					c0.1,0.7-0.3,1.3-0.9,1.6l-21.5,10.8c-0.7,0.4-1.6,0.1-2-0.5c-2.2-3.1-5.5-5.2-9.2-6c-0.8-0.2-1.4-1-1.3-1.8l2.3-17.1
					c0.1-0.7,0.6-1.2,1.2-1.4c2.6-0.6,4.9-2.4,6.1-4.9c2.2-4.5,0.3-10-4.2-12.3c-4.5-2.2-10-0.3-12.3,4.2c-2.2,4.5-0.3,10,4.2,12.3
					c0.1,0,0.2,0.1,0.3,0.1l-3.5,20.3c-0.1,0.6-0.5,1-1,1.2c-3.5,1.4-6.4,4.1-8,7.5c-3.4,7.4-0.2,16.1,7.2,19.5
					c7,3.2,15.4,0.4,19.1-6.4c1-1.8,1.6-3.8,1.7-5.9c0-0.5,0.3-1,0.8-1.3l22.9-13.4c0.6-0.3,1.3-0.3,1.9,0.2
					c0.8,0.7,1.7,1.3,2.7,1.7C441.1,979.3,443.2,979.6,445.2,979.3z"/>
			</g>
		</g>
		<g id="Layer_2_27_" class="st1">
			<g id="Layer_8_26_">
				<path class="st2" d="M154.7,489.9c6-0.8,10.3-6.3,9.5-12.3s-6.3-10.3-12.3-9.5s-10.3,6.3-9.5,12.3c0.1,0.7-0.3,1.3-0.9,1.6
					l-21.5,10.8c-0.7,0.4-1.6,0.1-2-0.5c-2.2-3.1-5.5-5.2-9.2-6c-0.8-0.2-1.4-1-1.3-1.8l2.3-17.1c0.1-0.7,0.6-1.2,1.2-1.4
					c2.6-0.6,4.9-2.4,6.1-4.9c2.2-4.5,0.3-10-4.2-12.3c-4.5-2.2-10-0.3-12.3,4.2c-2.2,4.5-0.3,10,4.2,12.3c0.1,0,0.2,0.1,0.3,0.1
					l-3.5,20.3c-0.1,0.6-0.5,1-1,1.2c-3.5,1.4-6.4,4.1-8,7.5c-3.4,7.4-0.2,16.1,7.2,19.5c7,3.2,15.4,0.4,19.1-6.4
					c1-1.8,1.6-3.8,1.7-5.9c0-0.5,0.3-1,0.8-1.3l22.9-13.4c0.6-0.3,1.3-0.3,1.9,0.2c0.8,0.7,1.7,1.3,2.7,1.7
					C150.6,489.9,152.7,490.2,154.7,489.9z"/>
			</g>
		</g>
		<g id="Layer_2_26_" class="st1">
			<g id="Layer_8_25_">
				<path class="st2" d="M243.6,914.4c-3.6-2.8-8.8-2.1-11.5,1.5c-2.8,3.6-2.1,8.8,1.5,11.5s8.8,2.1,11.5-1.5
					c0.3-0.4,0.8-0.6,1.3-0.4l17.1,5.7c0.6,0.2,0.9,0.8,0.8,1.4c-0.5,2.8,0.1,5.6,1.7,8c0.3,0.5,0.2,1.2-0.3,1.6l-10.2,7.8
					c-0.4,0.3-0.9,0.3-1.4,0.1c-1.7-1.1-3.9-1.3-5.8-0.6c-3.6,1.2-5.5,5.1-4.3,8.7c1.2,3.6,5.1,5.5,8.7,4.3c3.6-1.2,5.5-5.1,4.3-8.7
					c0-0.1,0-0.1-0.1-0.2l12.6-8.9c0.3-0.2,0.8-0.3,1.2-0.1c2.6,1.1,5.5,1.2,8.2,0.2c5.7-2.1,8.6-8.4,6.5-14.1
					c-2-5.4-7.9-8.4-13.4-6.7c-1.5,0.4-2.8,1.2-4,2.2c-0.3,0.3-0.7,0.3-1.1,0.2l-19.2-5c-0.5-0.1-0.8-0.6-0.9-1.1
					c-0.1-0.8-0.2-1.6-0.5-2.3C245.7,916.6,244.8,915.4,243.6,914.4z"/>
			</g>
		</g>
		<g id="Layer_2_24_" class="st1">
			<g id="Layer_8_23_">
				<path class="st2" d="M70.9,373.9c-3.6-2.8-8.8-2.1-11.5,1.5c-2.8,3.6-2.1,8.8,1.5,11.5s8.8,2.1,11.5-1.5
					c0.3-0.4,0.8-0.6,1.3-0.4l17.1,5.7c0.6,0.2,0.9,0.8,0.8,1.4c-0.5,2.8,0.1,5.6,1.7,8c0.3,0.5,0.2,1.2-0.3,1.6l-10.2,7.8
					c-0.4,0.3-0.9,0.3-1.4,0.1c-1.7-1.1-3.9-1.3-5.8-0.6c-3.6,1.2-5.5,5.1-4.3,8.7c1.2,3.6,5.1,5.5,8.7,4.3c3.6-1.2,5.5-5.1,4.3-8.7
					c0-0.1,0-0.1-0.1-0.2l12.6-8.9c0.3-0.2,0.8-0.3,1.2-0.1c2.6,1.1,5.5,1.2,8.2,0.2c5.7-2.1,8.6-8.4,6.5-14.1
					c-2-5.4-7.9-8.4-13.4-6.7c-1.5,0.4-2.8,1.2-4,2.2c-0.3,0.3-0.7,0.3-1.1,0.2l-19.2-5c-0.5-0.1-0.8-0.6-0.9-1.1
					c-0.1-0.8-0.2-1.6-0.5-2.3C73,376.1,72.1,374.9,70.9,373.9z"/>
			</g>
		</g>
		<g id="Layer_2_21_" class="st1">
			<g id="Layer_8_20_">
				<path class="st2" d="M438.8,524.2c-3.6-2.8-8.8-2.1-11.5,1.5c-2.8,3.6-2.1,8.8,1.5,11.5c3.6,2.8,8.8,2.1,11.5-1.5
					c0.3-0.4,0.8-0.6,1.3-0.4l17.1,5.7c0.6,0.2,0.9,0.8,0.8,1.4c-0.5,2.8,0.1,5.6,1.7,8c0.3,0.5,0.2,1.2-0.3,1.6l-10.2,7.8
					c-0.4,0.3-0.9,0.3-1.4,0.1c-1.7-1.1-3.9-1.3-5.8-0.6c-3.6,1.2-5.5,5.1-4.3,8.7c1.2,3.6,5.1,5.5,8.7,4.3c3.6-1.2,5.5-5.1,4.3-8.7
					c0-0.1,0-0.1-0.1-0.2l12.6-8.9c0.3-0.2,0.8-0.3,1.2-0.1c2.6,1.1,5.5,1.2,8.2,0.2c5.7-2.1,8.6-8.4,6.5-14.1
					c-2-5.4-7.9-8.4-13.4-6.7c-1.5,0.4-2.8,1.2-4,2.2c-0.3,0.3-0.7,0.3-1.1,0.2l-19.2-5c-0.5-0.1-0.8-0.6-0.9-1.1
					c-0.1-0.8-0.2-1.6-0.5-2.3C441,526.4,440,525.1,438.8,524.2z"/>
			</g>
		</g>
	</g>
</g>
<g id="Layer_2">
</g>
</svg>
