<svg xmlns="http://www.w3.org/2000/svg" width="39.869" height="40.154" viewBox="0 0 39.869 40.154">
  <g id="A_Checkbox" data-name="A Checkbox" transform="translate(0 0)">
    <path id="Subtraction_28" data-name="Subtraction 28" d="M19.893,40.154h0a41.719,41.719,0,0,1-9.364-.977c-2.954-.7-5.165-1.738-6.4-3.013A14.529,14.529,0,0,1,1.074,29.7,39.853,39.853,0,0,1,0,20.433a39.83,39.83,0,0,1,.992-9.368A15.392,15.392,0,0,1,4.131,4.293,13.01,13.01,0,0,1,10.5,1.041,37.405,37.405,0,0,1,19.645,0a42,42,0,0,1,9.817,1.113c3.092.769,5.4,1.869,6.668,3.18,2.818,2.907,3.778,10.188,3.736,16.032-.051,7.272-1.518,13.49-3.736,15.84-1.16,1.229-3.393,2.255-6.457,2.968A44.7,44.7,0,0,1,19.893,40.154ZM19.7,3.576a30.751,30.751,0,0,0-7.514.856A10.694,10.694,0,0,0,6.947,7.1C4.82,9.4,3.519,14.483,3.552,20.37a32.752,32.752,0,0,0,.882,7.615A11.94,11.94,0,0,0,6.947,33.3c2.333,2.417,8.22,3.279,12.951,3.279,6.132,0,11.5-1.318,13.348-3.279,1.823-1.931,3.029-7.041,3.071-13.018.034-4.8-.755-10.787-3.071-13.176C31.2,4.994,25.757,3.576,19.7,3.576Z" transform="translate(0.001 0)" fill="#29374a"/>
    <path id="Path_17" data-name="Path 17" d="M-17591.375,3071.181c-2.969-3.074-15.135-3.516-18.383,0s-3.08,15.164,0,18.366,15.631,2.926,18.383,0S-17588.4,3074.255-17591.375,3071.181Z" transform="translate(17620.613 -3060.199)" fill="#2a61ae"/>
  </g>
</svg>
