<svg id="A_Icon_Calendar" data-name="A Icon Calendar" xmlns="http://www.w3.org/2000/svg" width="24" height="24" viewBox="0 0 24 24">
  <rect id="Rectangle_114" data-name="Rectangle 114" width="24" height="24" fill="#fff" opacity="0"/>
  <path id="Union_15" data-name="Union 15" d="M1.5,20.251V19.5h15v.751Zm16.5-1.5H0V2.25H3V0H4.5V2.25h9V0H15V2.25h3v16.5h0ZM1.5,17.25h15V3.75H15V4.5H13.5V3.75h-9V4.5H3V3.75H1.5Zm6.75-1.125v-1.5h1.5v1.5Zm-2.625,0v-1.5h1.5v1.5ZM3,16.125v-1.5H4.5v1.5Zm10.5-3v-1.5H15v1.5Zm-2.624,0v-1.5h1.5v1.5Zm-2.626,0v-1.5h1.5v1.5Zm-2.625,0v-1.5h1.5v1.5ZM3,13.125v-1.5H4.5v1.5Zm10.5-3v-1.5H15v1.5Zm-2.624,0v-1.5h1.5v1.5Zm-2.626,0v-1.5h1.5v1.5Zm-2.625,0v-1.5h1.5v1.5ZM3,10.125v-1.5H4.5v1.5Zm10.5-3v-1.5H15v1.5Zm-2.624,0v-1.5h1.5v1.5Zm-2.626,0v-1.5h1.5v1.5Zm-2.625,0v-1.5h1.5v1.5Z" transform="translate(3.001 1.5)" fill="#edf0f5"/>
</svg>
