<svg id="A_Icon_Expand" data-name="A Icon Expand" xmlns="http://www.w3.org/2000/svg" width="64" height="64" viewBox="0 0 64 64">
  <rect id="Rectangle_185" data-name="Rectangle 185" width="64" height="64" fill="#fff" opacity="0"/>
  <rect id="Rectangle_49" data-name="Rectangle 49" width="12" height="4" transform="translate(55.757 8.243) rotate(90)" fill="#2a61ae"/>
  <rect id="Rectangle_174" data-name="Rectangle 174" width="12" height="4" transform="translate(12.243 8.243) rotate(90)" fill="#2a61ae"/>
  <rect id="Rectangle_175" data-name="Rectangle 175" width="12" height="4" transform="translate(12.242 43.757) rotate(90)" fill="#2a61ae"/>
  <rect id="Rectangle_176" data-name="Rectangle 176" width="12" height="4" transform="translate(55.758 43.757) rotate(90)" fill="#2a61ae"/>
  <rect id="Rectangle_168" data-name="Rectangle 168" width="22" height="4" transform="translate(51.556 54.385) rotate(-135)" fill="#2a61ae"/>
  <rect id="Rectangle_180" data-name="Rectangle 180" width="22" height="4" transform="translate(25.172 28) rotate(-135)" fill="#2a61ae"/>
  <path id="Path_47" data-name="Path 47" d="M0,0H12V4H0Z" transform="translate(55.758 55.757) rotate(180)" fill="#2a61ae"/>
  <rect id="Rectangle_177" data-name="Rectangle 177" width="12" height="4" transform="translate(55.757 12.243) rotate(180)" fill="#2a61ae"/>
  <rect id="Rectangle_178" data-name="Rectangle 178" width="12" height="4" transform="translate(20.243 12.243) rotate(180)" fill="#2a61ae"/>
  <rect id="Rectangle_179" data-name="Rectangle 179" width="12" height="4" transform="translate(20.242 55.757) rotate(180)" fill="#2a61ae"/>
  <rect id="Rectangle_181" data-name="Rectangle 181" width="22" height="4" transform="translate(9.615 51.556) rotate(-45)" fill="#2a61ae"/>
  <rect id="Rectangle_182" data-name="Rectangle 182" width="22" height="4" transform="translate(36 25.172) rotate(-45)" fill="#2a61ae"/>
</svg>
