<svg id="A_Icon_Bell" data-name="A Icon Bell" xmlns="http://www.w3.org/2000/svg" width="24" height="24" viewBox="0 0 24 24">
  <rect id="Rectangle_33" data-name="Rectangle 33" width="24" height="24" fill="#fff" opacity="0"/>
  <path id="Subtraction_24" data-name="Subtraction 24" d="M10.5,21h-3v-3.75h3V21ZM18,16.5H0V15.166l1.5-1.283c0-.136,0-.265,0-.383A12.848,12.848,0,0,1,3.7,6.075,7.913,7.913,0,0,1,6.08,3.826,5.794,5.794,0,0,1,8.25,3.052V0h1.5V3.052a5.794,5.794,0,0,1,2.168.775A7.91,7.91,0,0,1,14.3,6.075,12.851,12.851,0,0,1,16.5,13.5c0,.143,0,.268,0,.384L18,15.166V16.5Z" transform="translate(3 1.501)" fill="#18a5b0"/>
</svg>
