<svg id="A_Icon_Speech_Bubble" data-name="A Icon Speech Bubble" xmlns="http://www.w3.org/2000/svg" width="24" height="24" viewBox="0 0 24 24">
  <rect id="Rectangle_33" data-name="Rectangle 33" width="24" height="24" fill="#fff" opacity="0"/>
  <path id="Subtraction_25" data-name="Subtraction 25" d="M1.5,19.5h0l2.1-5.249H5.153L4.5,15.991l2.616-1.74H9.9L1.5,19.5Zm9.6-6H0V0H18V13.5H11.1ZM1.5,1.5V12h15V1.5Zm9,9H3V9h7.5v1.5Zm4.5-3H9V6h6V7.5Zm-7.5,0H3V6H7.5V7.5Zm6-3h-3V3h3V4.5ZM9,4.5H3V3H9V4.5Z" transform="translate(3.001 1.499)" fill="#edf0f5"/>
</svg>
