<svg id="A_Icon_Question_Mark" data-name="A Icon Question Mark" xmlns="http://www.w3.org/2000/svg" width="64" height="64" viewBox="0 0 64 64">
  <rect id="Rectangle_1491" data-name="Rectangle 1491" width="64" height="64" fill="#fff" opacity="0"/>
  <path id="Path_59" data-name="Path 59" d="M8971.224,1218.356A14.448,14.448,0,0,1,8973,1205.3c4.5-6.632,8-9.479,8-15.3s-3.59-8-8-8a8.006,8.006,0,0,0-8,8h-4a12,12,0,0,1,24,0c0,3.2.161,5.234-3.233,10.558s-6.413,6.849-7.022,10.729a16.3,16.3,0,0,0,.479,7.07Z" transform="translate(-8941 -1173.999)" fill="#edf0f5"/>
  <circle id="Ellipse_73" data-name="Ellipse 73" cx="4" cy="4" r="4" transform="translate(28 52)" fill="#edf0f5"/>
</svg>
