<svg id="A_Icon_Ribbon" data-name="A Icon Ribbon" xmlns="http://www.w3.org/2000/svg" width="64" height="64" viewBox="0 0 64 64">
  <rect id="Rectangle_1490" data-name="Rectangle 1490" width="64" height="64" fill="#fff" opacity="0"/>
  <g id="Union_26" data-name="Union 26" transform="translate(-9095 -1138)" fill="none">
    <path d="M9139,1198h-16a20,20,0,0,1-20-20h39.557l8.442,10-8.442,10Z" stroke="none"/>
    <path d="M 9140.7001953125 1194.000122070313 L 9145.765625 1188.00048828125 L 9140.69921875 1181.9990234375 L 9139 1181.9990234375 L 9107.501953125 1181.9990234375 C 9108.205078125 1184.742919921875 9109.6318359375 1187.258666992188 9111.6865234375 1189.313842773438 C 9114.7080078125 1192.335815429688 9118.7255859375 1194.000122070313 9123 1194.000122070313 L 9139 1194.000122070313 L 9140.7001953125 1194.000122070313 M 9142.5576171875 1198.000122070313 L 9139 1198.000122070313 L 9123 1198.000122070313 C 9111.953125 1198.000122070313 9103.0009765625 1189.045654296875 9103.0009765625 1177.9990234375 L 9139 1177.9990234375 L 9142.5576171875 1177.9990234375 L 9151 1188.000732421875 L 9142.5576171875 1198.000122070313 Z" stroke="none" fill="#edf0f5"/>
  </g>
  <g id="Subtraction_46" data-name="Subtraction 46" transform="translate(-9098.999 -1174)" fill="none">
    <path d="M9155,1198h-48v-.528l8-9.471-8-9.474V1178h28a20,20,0,0,1,20,20Z" stroke="none"/>
    <path d="M 9150.498046875 1193.999755859375 C 9149.794921875 1191.256469726563 9148.3681640625 1188.741088867188 9146.3134765625 1186.686279296875 C 9143.2900390625 1183.663696289063 9139.2724609375 1181.999145507813 9134.9990234375 1181.999145507813 L 9115.166015625 1181.999145507813 L 9118.0546875 1185.420288085938 L 9120.2333984375 1188.000854492188 L 9118.0537109375 1190.581298828125 L 9115.16796875 1193.999755859375 L 9150.498046875 1193.999755859375 M 9154.9990234375 1197.999755859375 L 9107 1197.999755859375 L 9107 1197.471923828125 L 9114.998046875 1188.000610351563 L 9107 1178.527099609375 L 9107 1177.999145507813 L 9134.9990234375 1177.999145507813 C 9140.3408203125 1177.999145507813 9145.36328125 1180.079711914063 9149.1416015625 1183.857666015625 C 9152.9189453125 1187.635131835938 9154.9990234375 1192.657104492188 9154.9990234375 1197.998779296875 L 9154.9990234375 1197.999755859375 Z" stroke="none" fill="#edf0f5"/>
  </g>
  <path id="Path_61" data-name="Path 61" d="M24,0H48L24,16H0Z" transform="translate(8 24)" fill="#edf0f5"/>
</svg>
