<svg id="A_Icon_Settings_Gear" data-name="A Icon Settings Gear" xmlns="http://www.w3.org/2000/svg" width="24" height="24" viewBox="0 0 24 24">
  <rect id="Rectangle_84" data-name="Rectangle 84" width="24" height="24" fill="#fff" opacity="0"/>
  <path id="Subtraction_21" data-name="Subtraction 21" d="M12,21H9V19.378a8.934,8.934,0,0,1-1.641-.438l-.811,1.4-2.6-1.5.813-1.407c-.214-.178-.425-.371-.627-.572s-.386-.4-.572-.627l-1.408.813-1.5-2.6,1.4-.811A8.986,8.986,0,0,1,1.623,12H0V9H1.623A9.019,9.019,0,0,1,2.06,7.36l-1.4-.81,1.5-2.6,1.407.813c.182-.218.375-.43.573-.628s.413-.394.627-.571L3.95,2.157l2.6-1.5.811,1.4A8.913,8.913,0,0,1,9,1.624V0h3V1.624a8.923,8.923,0,0,1,1.64.437l.811-1.4,2.6,1.5-.812,1.407c.217.181.428.374.628.572s.4.42.572.628l1.407-.813,1.5,2.6-1.4.81A8.9,8.9,0,0,1,19.375,9H21v3H19.375a8.925,8.925,0,0,1-.437,1.641l1.4.811-1.5,2.6-1.407-.813c-.182.219-.375.43-.572.627s-.406.387-.628.572l.813,1.407-2.6,1.5-.811-1.4a8.925,8.925,0,0,1-1.64.437V21ZM10.5,3a7.5,7.5,0,1,0,5.3,2.2A7.449,7.449,0,0,0,10.5,3Zm0,13.5a6,6,0,1,1,6-6A6.007,6.007,0,0,1,10.5,16.5ZM10.5,6A4.5,4.5,0,1,0,15,10.5,4.5,4.5,0,0,0,10.5,6Z" transform="translate(1.501 1.5)" fill="#edf0f5"/>
</svg>
