<svg xmlns="http://www.w3.org/2000/svg" width="24" height="24" viewBox="0 0 24 24">
  <g id="A_Icon_World" data-name="A Icon World" transform="translate(0 0)">
    <rect id="Rectangle_33" data-name="Rectangle 33" width="16.817" height="16.817" transform="translate(3.591 3.592)" fill="#fff" opacity="0"/>
    <path id="Union_6" data-name="Union 6" d="M9.44,18.881h0l-.143,0A9.442,9.442,0,0,1,5.766.742,9.377,9.377,0,0,1,9.438,0h0a9.443,9.443,0,0,1,3.675,18.139,9.374,9.374,0,0,1-3.535.741l-.139,0h0Zm0-1.349h0c.5,0,.938-1.643,1.17-4.076-.385.02-.776.031-1.17.031s-.785-.01-1.171-.031C8.5,15.89,8.94,17.532,9.44,17.532Zm-3.815-2.37A5.484,5.484,0,0,0,7.9,17.2a10.54,10.54,0,0,1-.37-1.085,19.255,19.255,0,0,1-.549-2.767,17.682,17.682,0,0,1-2.421-.443A8.9,8.9,0,0,0,5.626,15.162Zm5.722.953a10.486,10.486,0,0,1-.37,1.085,5.484,5.484,0,0,0,2.276-2.038,8.906,8.906,0,0,0,1.063-2.255,17.73,17.73,0,0,1-2.421.442A19.3,19.3,0,0,1,11.348,16.116Zm3.06-.292A8.116,8.116,0,0,0,17.2,11.749a8.344,8.344,0,0,1-1.081.553q-.134.057-.272.112A10.67,10.67,0,0,1,14.408,15.824Zm-9.936,0a10.687,10.687,0,0,1-1.435-3.41q-.138-.055-.272-.112a8.379,8.379,0,0,1-1.081-.553A8.118,8.118,0,0,0,4.472,15.824Zm4.969-3.685c.433,0,.859-.011,1.273-.033.049-.835.075-1.731.075-2.664s-.026-1.83-.075-2.664c-.415-.022-.84-.033-1.273-.033s-.859.011-1.274.033c-.049.835-.075,1.731-.075,2.664s.027,1.83.075,2.664C8.582,12.127,9.008,12.138,9.441,12.138Zm2.7-2.7c0,.876-.034,1.734-.1,2.555a16.7,16.7,0,0,0,2.622-.5,12.174,12.174,0,0,0,0-4.12,16.693,16.693,0,0,0-2.622-.5C12.1,7.707,12.137,8.564,12.137,9.44ZM6.843,12c-.065-.821-.1-1.679-.1-2.555s.034-1.734.1-2.555a16.682,16.682,0,0,0-2.622.5,12.2,12.2,0,0,0,0,4.119A16.7,16.7,0,0,0,6.843,12ZM2.785,10.973a13.41,13.41,0,0,1,0-3.066c-.906.436-1.437.964-1.437,1.533S1.88,10.538,2.785,10.973Zm13.4-1.533a13.391,13.391,0,0,1-.088,1.533c.906-.436,1.437-.964,1.437-1.533S17,8.343,16.1,7.908A13.39,13.39,0,0,1,16.184,9.44Zm-.068-2.86a8.34,8.34,0,0,1,1.081.552,8.119,8.119,0,0,0-2.789-4.075,10.67,10.67,0,0,1,1.436,3.411C15.937,6.5,16.027,6.542,16.116,6.58ZM1.684,7.132A8.349,8.349,0,0,1,2.765,6.58c.089-.038.18-.076.272-.112a10.688,10.688,0,0,1,1.435-3.41A8.118,8.118,0,0,0,1.684,7.132ZM5.626,3.72A8.9,8.9,0,0,0,4.562,5.975a17.688,17.688,0,0,1,2.421-.443,19.171,19.171,0,0,1,.549-2.768A10.426,10.426,0,0,1,7.9,1.681,5.485,5.485,0,0,0,5.626,3.72Zm8.693,2.255A8.9,8.9,0,0,0,13.255,3.72a5.484,5.484,0,0,0-2.276-2.038,10.421,10.421,0,0,1,.369,1.083A19.218,19.218,0,0,1,11.9,5.533,17.721,17.721,0,0,1,14.319,5.975Zm-3.707-.549c-.229-2.4-.658-4.029-1.149-4.076H9.419C8.928,1.4,8.5,3.027,8.27,5.426Q8.848,5.4,9.441,5.4T10.612,5.426Z" transform="translate(6.147 0) rotate(19)" fill="#18a5b0"/>
  </g>
</svg>
