<svg id="A_Icon_Zoom_Out" data-name="A Icon Zoom Out" xmlns="http://www.w3.org/2000/svg" width="64" height="64" viewBox="0 0 64 64">
  <rect id="Rectangle_84" data-name="Rectangle 84" width="64" height="64" fill="#fff" opacity="0"/>
  <path id="Subtraction_40" data-name="Subtraction 40" d="M8382.952,896.938h0a19.971,19.971,0,0,1-16.2-8.245,20,20,0,0,1,16.164-31.758,19.97,19.97,0,0,1,16.2,8.245,20,20,0,0,1-16.164,31.758Zm-.028-36a16,16,0,0,0-12.933,25.405,16.06,16.06,0,0,0,12.957,6.6,16,16,0,0,0,12.932-25.405,16.06,16.06,0,0,0-12.956-6.6Z" transform="translate(-8354.38 -852.753)" fill="#2a61ae"/>
  <rect id="Rectangle_120" data-name="Rectangle 120" width="8" height="18" transform="matrix(0.809, -0.588, 0.588, 0.809, 38.839, 45.142)" fill="#2a61ae"/>
  <rect id="Rectangle_121" data-name="Rectangle 121" width="4" height="25" transform="matrix(0.809, -0.588, 0.588, 0.809, 37.518, 39.921)" fill="#2a61ae"/>
  <rect id="Rectangle_201" data-name="Rectangle 201" width="6" height="16" transform="translate(21 27) rotate(-90)" fill="#2a61ae"/>
</svg>
