<svg id="A_Icon_Cancel" data-name="A Icon Cancel" xmlns="http://www.w3.org/2000/svg" width="64" height="64" viewBox="0 0 64 64">
  <rect id="Rectangle_33" data-name="Rectangle 33" width="64" height="64" fill="#fff" opacity="0"/>
  <path id="Union_10" data-name="Union 10" d="M11402.1-2791.2a27.965,27.965,0,0,1-8.9-6,27.943,27.943,0,0,1-6-8.9,27.788,27.788,0,0,1-2.2-10.9,27.785,27.785,0,0,1,2.2-10.9,27.878,27.878,0,0,1,6-8.9,27.934,27.934,0,0,1,8.9-6,27.843,27.843,0,0,1,10.9-2.2,27.843,27.843,0,0,1,10.9,2.2,27.859,27.859,0,0,1,8.9,6,27.855,27.855,0,0,1,6,8.9,27.852,27.852,0,0,1,2.2,10.9,27.856,27.856,0,0,1-2.2,10.9,27.919,27.919,0,0,1-6,8.9,27.89,27.89,0,0,1-8.9,6,27.789,27.789,0,0,1-10.9,2.2A27.79,27.79,0,0,1,11402.1-2791.2ZM11389-2817a24.027,24.027,0,0,0,24,24,24.024,24.024,0,0,0,24-24,24.027,24.027,0,0,0-24-24A24.029,24.029,0,0,0,11389-2817Zm24,5.656-8.485,8.488-5.656-5.659,8.485-8.485-8.485-8.485,5.656-5.656,8.485,8.485,8.484-8.485,5.659,5.656-8.487,8.485,8.487,8.485-5.659,5.659Z" transform="translate(-11380.999 2849.001)" fill="#edf0f5"/>
</svg>
