<svg id="A_Icon_Eye_Open" data-name="A Icon Eye Open" xmlns="http://www.w3.org/2000/svg" width="64" height="64" viewBox="0 0 64 64">
  <rect id="Rectangle_1506" data-name="Rectangle 1506" width="64" height="64" fill="#fff" opacity="0"/>
  <path id="Subtraction_42" data-name="Subtraction 42" d="M9235,952h-8a24,24,0,0,1,48,0h-8a16,16,0,0,0-32,0Z" transform="translate(-9219 -912.001)" fill="#2a61ae"/>
  <path id="Subtraction_42-2" data-name="Subtraction 42" d="M9232.333,944H9227a16,16,0,0,1,32,0h-5.333a10.667,10.667,0,0,0-21.333,0Z" transform="translate(9274.999 972.001) rotate(180)" fill="#2a61ae"/>
  <rect id="Rectangle_1498" data-name="Rectangle 1498" width="4" height="4" transform="translate(10.787 15.958) rotate(45)" fill="#2a61ae"/>
  <rect id="Rectangle_1496" data-name="Rectangle 1496" width="4" height="4" transform="translate(53.213 15.958) rotate(45)" fill="#2a61ae"/>
  <rect id="Rectangle_1496-2" data-name="Rectangle 1496" width="4" height="4" transform="translate(30 8)" fill="#2a61ae"/>
  <rect id="Rectangle_1496-3" data-name="Rectangle 1496" width="4" height="4" transform="matrix(0.921, 0.391, -0.391, 0.921, 42.662, 9.762)" fill="#2a61ae"/>
  <rect id="Rectangle_1504" data-name="Rectangle 1504" width="4" height="4" transform="translate(21.867 9.581) rotate(68)" fill="#2a61ae"/>
  <circle id="Ellipse_89" data-name="Ellipse 89" cx="6" cy="6" r="6" transform="translate(26 21.998)" fill="#2a61ae"/>
</svg>