<svg id="A_Icon_Pie_Chart" data-name="A Icon Pie Chart" xmlns="http://www.w3.org/2000/svg" width="64" height="64" viewBox="0 0 64 64">
  <g id="Intersection_3" data-name="Intersection 3" transform="translate(-9330 -326)" fill="#2a61ae">
    <path d="M 9387.9189453125 355.9999389648438 L 9365.515625 355.9999389648438 L 9376.78515625 337.0447387695313 C 9379.9033203125 339.1614685058594 9382.5322265625 341.93359375 9384.453125 345.1492919921875 C 9386.4296875 348.4567260742188 9387.6123046875 352.1728210449219 9387.9189453125 355.9999389648438 Z" stroke="none"/>
    <path d="M 9385.6494140625 353.9999389648438 C 9385.1650390625 351.2458801269531 9384.1806640625 348.592041015625 9382.7373046875 346.1752319335938 C 9381.3271484375 343.8169555664063 9379.5048828125 341.7168273925781 9377.37109375 339.973388671875 L 9369.03125 353.9999389648438 L 9385.6494140625 353.9999389648438 M 9389.9990234375 357.9999389648438 L 9362 357.9999389648438 L 9376.1103515625 334.2662963867188 C 9384.4189453125 339.03125 9389.9990234375 347.87548828125 9389.9990234375 357.9999389648438 Z" stroke="none" fill="#2a61ae"/>
  </g>
  <g id="Subtraction_48" data-name="Subtraction 48" transform="translate(-9330 -323)" fill="none">
    <path d="M9362,379a24,24,0,1,1,12.095-44.733L9362,355h24a24,24,0,0,1-24,24Z" stroke="none"/>
    <path d="M 9362 378.9993286132813 C 9368.41015625 378.9993286132813 9374.4375 376.5031127929688 9378.970703125 371.9705200195313 C 9383.5029296875 367.4381408691406 9385.9990234375 361.4115600585938 9385.9990234375 354.9999389648438 L 9362 354.9999389648438 L 9374.0947265625 334.2662658691406 C 9370.4404296875 332.1297912597656 9366.2587890625 331.0005187988281 9362 331.0005187988281 C 9355.58984375 331.0005187988281 9349.5625 333.4967346191406 9345.029296875 338.0293273925781 C 9340.49609375 342.5618591308594 9338 348.5888061523438 9338 354.9999389648438 C 9338 361.4110717773438 9340.49609375 367.4380187988281 9345.029296875 371.9705200195313 C 9349.5625 376.5031127929688 9355.58984375 378.9993286132813 9362 378.9993286132813 M 9362 382.9993286132813 C 9354.521484375 382.9993286132813 9347.4892578125 380.0870971679688 9342.201171875 374.7991333007813 C 9336.912109375 369.5114440917969 9334 362.4799194335938 9334 354.9999389648438 C 9334 347.5199584960938 9336.912109375 340.4884643554688 9342.201171875 335.20068359375 C 9347.490234375 329.9127502441406 9354.521484375 327.0005187988281 9362 327.0005187988281 C 9366.966796875 327.0005187988281 9371.84765625 328.3189086914063 9376.11328125 330.8131408691406 L 9379.5634765625 332.8300170898438 L 9377.5498046875 336.2817687988281 L 9368.9638671875 350.9999389648438 L 9385.9990234375 350.9999389648438 L 9389.9990234375 350.9999389648438 L 9389.9990234375 354.9999389648438 C 9389.9990234375 362.4795837402344 9387.0869140625 369.5109558105469 9381.798828125 374.7988891601563 C 9376.5107421875 380.0870971679688 9369.478515625 382.9993286132813 9362 382.9993286132813 Z" stroke="none" fill="#2a61ae"/>
  </g>
  <rect id="Rectangle_1546" data-name="Rectangle 1546" width="64" height="64" fill="#fff" opacity="0"/>
</svg>
