<svg id="A_Icon_Pivot_Table" data-name="A Icon Pivot Table" xmlns="http://www.w3.org/2000/svg" width="64" height="64" viewBox="0 0 64 64">
  <rect id="Rectangle_1508" data-name="Rectangle 1508" width="48" height="12" transform="translate(8 8)" fill="#2a61ae"/>
  <rect id="Rectangle_1509" data-name="Rectangle 1509" width="4" height="4" transform="translate(16 24)" fill="#2a61ae"/>
  <rect id="Rectangle_1532" data-name="Rectangle 1532" width="4" height="4" transform="translate(16 12)" fill="#fff"/>
  <rect id="Rectangle_1515" data-name="Rectangle 1515" width="12" height="4" transform="translate(24 24)" fill="#2a61ae"/>
  <rect id="Rectangle_1531" data-name="Rectangle 1531" width="8" height="4" transform="translate(24 12)" fill="#fff"/>
  <rect id="Rectangle_1526" data-name="Rectangle 1526" width="8" height="4" transform="translate(40 24)" fill="#2a61ae"/>
  <rect id="Rectangle_1530" data-name="Rectangle 1530" width="8" height="4" transform="translate(40 12)" fill="#fff"/>
  <rect id="Rectangle_1510" data-name="Rectangle 1510" width="4" height="4" transform="translate(16 32)" fill="#2a61ae"/>
  <rect id="Rectangle_1516" data-name="Rectangle 1516" width="8" height="4" transform="translate(24 32)" fill="#2a61ae"/>
  <rect id="Rectangle_1525" data-name="Rectangle 1525" width="4" height="4" transform="translate(40 32)" fill="#2a61ae"/>
  <rect id="Rectangle_1511" data-name="Rectangle 1511" width="4" height="4" transform="translate(16 40)" fill="#2a61ae"/>
  <rect id="Rectangle_1517" data-name="Rectangle 1517" width="12" height="4" transform="translate(24 40)" fill="#2a61ae"/>
  <rect id="Rectangle_1524" data-name="Rectangle 1524" width="8" height="4" transform="translate(40 40)" fill="#2a61ae"/>
  <rect id="Rectangle_1512" data-name="Rectangle 1512" width="4" height="4" transform="translate(16 48)" fill="#2a61ae"/>
  <rect id="Rectangle_1518" data-name="Rectangle 1518" width="12" height="4" transform="translate(24 48)" fill="#2a61ae"/>
  <rect id="Rectangle_1523" data-name="Rectangle 1523" width="4" height="4" transform="translate(40 48)" fill="#2a61ae"/>
  <rect id="Rectangle_1527" data-name="Rectangle 1527" width="4" height="40" transform="translate(8 16)" fill="#2a61ae"/>
  <rect id="Rectangle_1528" data-name="Rectangle 1528" width="4" height="40" transform="translate(52 16)" fill="#2a61ae"/>
  <rect id="Rectangle_1529" data-name="Rectangle 1529" width="48" height="4" transform="translate(8 56)" fill="#2a61ae"/>
  <rect id="Rectangle_1549" data-name="Rectangle 1549" width="64" height="64" fill="#fff" opacity="0"/>
</svg>
