<?xml version="1.0" encoding="utf-8"?><!-- Generator: Adobe Illustrator 24.1.1, SVG Export Plug-In . SVG Version: 6.00 Build 0)  -->
<svg version="1.1" id="A_Checkbox_Off" xmlns="http://www.w3.org/2000/svg" x="0px" y="0px" viewBox="0 0 39.9 40.2"
     style="enable-background:new 0 0 39.9 40.2;" xml:space="preserve" preserveAspectRatio="none">
	<style type="text/css">
	.st0{fill:#FFFFFF;}
</style>
	<path id="Subtraction_28" class="st0" d="M19.9,40.2L19.9,40.2c-2.7,0-5.3-0.3-7.9-1c-2.5-0.7-4.4-1.7-5.4-3
	c-1.3-1.9-2.2-4.1-2.6-6.5c-0.6-3-0.9-6.1-0.9-9.3c0-3.2,0.2-6.3,0.8-9.4c0.4-2.5,1.3-4.8,2.7-6.8C8.1,2.6,9.9,1.5,11.9,1
	c2.5-0.7,5.1-1.1,7.7-1c2.8,0,5.6,0.4,8.3,1.1c2.6,0.8,4.6,1.9,5.6,3.2c2.4,2.9,3.2,10.2,3.2,16c0,7.3-1.3,13.5-3.2,15.8
	c-1,1.2-2.9,2.3-5.5,3C25.5,39.8,22.7,40.2,19.9,40.2z"/>
</svg>